<?xml version="1.0" encoding="UTF-8" standalone="no"?>
<!-- Created with Inkscape (http://www.inkscape.org/) -->

<svg
   width="16.933418mm"
   height="7.5798612mm"
   viewBox="0 0 16.933418 7.5798613"
   version="1.1"
   id="svg1"
   inkscape:version="1.3 (0e150ed, 2023-07-21)"
   sodipodi:docname="fort.svg"
   xmlns:inkscape="http://www.inkscape.org/namespaces/inkscape"
   xmlns:sodipodi="http://sodipodi.sourceforge.net/DTD/sodipodi-0.dtd"
   xmlns="http://www.w3.org/2000/svg"
   xmlns:svg="http://www.w3.org/2000/svg">
  <sodipodi:namedview
     id="namedview1"
     pagecolor="#ffffff"
     bordercolor="#000000"
     borderopacity="0.25"
     inkscape:showpageshadow="2"
     inkscape:pageopacity="0.0"
     inkscape:pagecheckerboard="0"
     inkscape:deskcolor="#d1d1d1"
     inkscape:document-units="mm"
     inkscape:zoom="2.9431746"
     inkscape:cx="29.220149"
     inkscape:cy="139.81501"
     inkscape:window-width="1392"
     inkscape:window-height="1212"
     inkscape:window-x="958"
     inkscape:window-y="25"
     inkscape:window-maximized="0"
     inkscape:current-layer="layer1" />
  <defs
     id="defs1" />
  <g
     inkscape:label="Layer 1"
     inkscape:groupmode="layer"
     id="layer1"
     transform="translate(-74.338457,-88.704052)">
    <path
       style="fill:#ffff00;stroke:#000000;stroke-width:0.384343"
       d="m 81.305749,96.067555 c -1.194566,-0.15683 -1.959421,-0.93901 -2.168666,-2.2178 l -0.08335,-0.5094 -0.367623,-0.0591 c -0.202193,-0.0325 -0.794206,-0.0608 -1.315588,-0.0629 l -0.947967,-0.004 2.9e-4,0.84948 c 1.45e-4,0.50139 0.03044,1.0495 0.07387,1.33763 0.04047,0.26849 0.07358,0.51779 0.07358,0.55401 0,0.0528 -0.198322,0.0658 -1.001483,0.0658 h -1.001483 l 0.08867,-0.50477 c 0.07733,-0.44017 0.08886,-0.81982 0.09016,-2.96701 0.0012,-1.93975 -0.01413,-2.56583 -0.07209,-2.9504 -0.04047,-0.26849 -0.07358,-0.51226 -0.07359,-0.5417 -1e-5,-0.0377 0.622068,-0.0535 2.105223,-0.0535 1.157881,0 2.2659,-0.0189 2.462265,-0.0419 l 0.357025,-0.0419 v 0.94625 0.94624 l -0.221857,-0.0333 c -0.586176,-0.0879 -1.159099,-0.12397 -1.981856,-0.12477 l -0.898721,-8.7e-4 v 0.46783 0.46782 l 0.849476,-0.001 c 0.754294,-8.7e-4 1.159154,-0.0303 1.698953,-0.12357 l 0.160046,-0.0277 0.0028,0.6301 0.0028,0.63011 0.133758,-0.36934 c 0.304783,-0.84158 0.880717,-1.36644 1.737048,-1.58298 0.700481,-0.17714 1.483785,-0.0734 2.078645,0.27516 0.320112,0.1876 0.756946,0.67123 0.924707,1.02376 l 0.146894,0.30868 -0.02519,-0.56632 c -0.01386,-0.31147 -0.03986,-0.67301 -0.05779,-0.80342 l -0.03261,-0.2371 0.979353,0.002 c 1.137313,0.003 1.902561,-0.0381 1.944412,-0.10368 0.0177,-0.0277 0.21865,-0.0123 0.504936,0.0388 0.261541,0.0467 0.483491,0.0758 0.493222,0.0646 0.01877,-0.0216 -0.04238,-0.63368 -0.09427,-0.94369 l -0.03092,-0.18467 h 0.98186 0.981859 l -0.06391,0.35703 c -0.03515,0.19636 -0.06507,0.4512 -0.0665,0.56631 -0.0024,0.19621 0.0059,0.20927 0.132832,0.20892 0.13429,-4.3e-4 0.673451,-0.0759 0.886409,-0.12413 l 0.110802,-0.0251 v 0.93754 0.93753 l -0.110802,-0.0251 c -0.212958,-0.0483 -0.752119,-0.12376 -0.886409,-0.12413 l -0.135424,-4.4e-4 v 1.05877 c 0,0.75053 0.0161,1.05877 0.05532,1.05877 0.03043,0 0.219501,-0.0997 0.420165,-0.22151 0.243679,-0.14794 0.371547,-0.20109 0.385021,-0.16004 0.0111,0.0338 0.129224,0.40871 0.262505,0.83314 l 0.24233,0.77169 -0.47338,0.18627 c -0.443744,0.17461 -0.507292,0.18642 -1.015074,0.18859 -0.496735,0.002 -0.565114,-0.009 -0.823849,-0.13623 -0.155185,-0.0762 -0.346233,-0.2163 -0.424551,-0.31131 -0.271501,-0.32938 -0.302817,-0.53362 -0.302817,-1.97496 v -1.30549 l -0.153891,0.0308 c -0.08464,0.0169 -0.184361,0.0308 -0.221602,0.0308 -0.03724,0 -0.06771,0.0427 -0.06771,0.095 0,0.0931 -0.0068,0.0929 -0.332403,-0.008 -0.182823,-0.0566 -0.472472,-0.11241 -0.643666,-0.12399 -0.309086,-0.0209 -0.312563,-0.0197 -0.497398,0.1746 -0.122193,0.12845 -0.196938,0.26105 -0.21758,0.386 -0.05778,0.34973 -0.03076,2.00248 0.04134,2.52948 0.03891,0.28439 0.07145,0.53369 0.07231,0.554 8.7e-4,0.0203 -0.433482,0.0369 -0.9652,0.0369 h -0.966762 l 0.03223,-0.2093 c 0.01772,-0.11511 0.04427,-0.47521 0.059,-0.80023 l 0.02677,-0.59094 -0.171351,0.3098 c -0.244785,0.44257 -0.480504,0.71136 -0.826398,0.94234 -0.500777,0.33441 -1.193318,0.48146 -1.857061,0.39432 z m 0.829124,-1.6464 c 0.376237,-0.19456 0.573348,-0.81687 0.447495,-1.41281 -0.120468,-0.57045 -0.398453,-0.79487 -0.950581,-0.76743 -0.402221,0.02 -0.555161,0.11631 -0.725764,0.45705 -0.176319,0.35216 -0.177343,0.97887 -0.0022,1.32911 0.172868,0.34563 0.374859,0.4679 0.773025,0.4679 0.183813,0 0.374771,-0.0308 0.457999,-0.0738 z"
       id="path1" />
  </g>
</svg>
